# xmcd CD database file generated by Grip 2.92
# 
# Track frame offsets:
#       154
#       38094
#       63746
#       89690
#       110369
#       151362
#       191290
#       210392
#       245781
#       267076
#       304703
# 
# Disc length: 4399 seconds
# 
# Revision: 3
# Processed by: cddbd v1.4b41PL1 Copyright (c) Steve Scherf et al.
# Submitted via: Grip 2.92
# 
DISCID=94112d0b
DTITLE=Hotsauce -N- Blues - The Nerak Roth Patterson Band
DYEAR=1900
DGENRE=
TTITLE0=Introduction - I Was Thru
TTITLE1=Can't Take My Blues
TTITLE2=You Upset Me Baby
TTITLE3=You're Drivin' Me Crazy
TTITLE4=Since You've Been Gone
TTITLE5=Every Day I Have The Blues
TTITLE6=Climbin' The Walls
TTITLE7=I Know
TTITLE8=No Use
TTITLE9=Fallin' Deep Within
TTITLE10=God Knows I've Tried
EXTD=
EXTT0=
EXTT1=
EXTT2=
EXTT3=
EXTT4=
EXTT5=
EXTT6=
EXTT7=
EXTT8=
EXTT9=
EXTT10=
PLAYORDER=
